<svg width="980" height="540" viewBox="0 0 980 540" xmlns="http://www.w3.org/2000/svg" role="img" aria-label="WakaTime yearly language stats">
  <rect width="100%" height="100%" fill="#0d1117"/>
  <rect x="10" y="10" width="960" height="520" fill="none" stroke="#30363d"/>

  <text x="490.0" y="42" text-anchor="middle" font-size="24" fill="#58a6ff" font-family="Arial, Helvetica, sans-serif">
    Languages in 2026 (Powered by wakatime.com)
  </text>

  <rect x="36" y="81" width="12" height="12" rx="2" fill="#316dca" /><text x="56" y="92" font-size="16" fill="#c9d1d9" font-family="Arial, Helvetica, sans-serif">Other (68.81%)</text><rect x="36" y="109" width="12" height="12" rx="2" fill="#00c853" /><text x="56" y="120" font-size="16" fill="#c9d1d9" font-family="Arial, Helvetica, sans-serif">Python (21.76%)</text><rect x="36" y="137" width="12" height="12" rx="2" fill="#1e88e5" /><text x="56" y="148" font-size="16" fill="#c9d1d9" font-family="Arial, Helvetica, sans-serif">Markdown (2.87%)</text><rect x="36" y="165" width="12" height="12" rx="2" fill="#455a64" /><text x="56" y="176" font-size="16" fill="#c9d1d9" font-family="Arial, Helvetica, sans-serif">YAML (1.91%)</text><rect x="36" y="193" width="12" height="12" rx="2" fill="#c51162" /><text x="56" y="204" font-size="16" fill="#c9d1d9" font-family="Arial, Helvetica, sans-serif">Vue (0.65%)</text><rect x="36" y="221" width="12" height="12" rx="2" fill="#c0b050" /><text x="56" y="232" font-size="16" fill="#c9d1d9" font-family="Arial, Helvetica, sans-serif">JSON (0.56%)</text><rect x="36" y="249" width="12" height="12" rx="2" fill="#d84315" /><text x="56" y="260" font-size="16" fill="#c9d1d9" font-family="Arial, Helvetica, sans-serif">Bash (0.53%)</text><rect x="36" y="277" width="12" height="12" rx="2" fill="#3949ab" /><text x="56" y="288" font-size="16" fill="#c9d1d9" font-family="Arial, Helvetica, sans-serif">Text (0.48%)</text><rect x="36" y="305" width="12" height="12" rx="2" fill="#fb8c00" /><text x="56" y="316" font-size="16" fill="#c9d1d9" font-family="Arial, Helvetica, sans-serif">TOML (0.37%)</text><rect x="36" y="333" width="12" height="12" rx="2" fill="#8e24aa" /><text x="56" y="344" font-size="16" fill="#c9d1d9" font-family="Arial, Helvetica, sans-serif">TypeScript (0.26%)</text><rect x="36" y="361" width="12" height="12" rx="2" fill="#00897b" /><text x="56" y="372" font-size="16" fill="#c9d1d9" font-family="Arial, Helvetica, sans-serif">HTML (0.25%)</text><rect x="36" y="389" width="12" height="12" rx="2" fill="#6d4c41" /><text x="56" y="400" font-size="16" fill="#c9d1d9" font-family="Arial, Helvetica, sans-serif">JavaScript (0.25%)</text><rect x="36" y="417" width="12" height="12" rx="2" fill="#ff7043" /><text x="56" y="428" font-size="16" fill="#c9d1d9" font-family="Arial, Helvetica, sans-serif">Other (1.29%)</text>

  <circle cx="690" cy="270" r="130" stroke="#161b22" stroke-width="64" fill="none"/>
  <path d="M 569.71 319.31 A 130 130 0 1 0 690.00 140.00" stroke="#316dca" stroke-width="64" fill="none" stroke-linecap="butt" /><path d="M 617.42 162.14 A 130 130 0 0 0 569.71 319.31" stroke="#00c853" stroke-width="64" fill="none" stroke-linecap="butt" /><path d="M 637.94 150.88 A 130 130 0 0 0 617.42 162.14" stroke="#1e88e5" stroke-width="64" fill="none" stroke-linecap="butt" /><path d="M 652.58 145.50 A 130 130 0 0 0 637.94 150.88" stroke="#455a64" stroke-width="64" fill="none" stroke-linecap="butt" /><path d="M 657.72 144.07 A 130 130 0 0 0 652.58 145.50" stroke="#c51162" stroke-width="64" fill="none" stroke-linecap="butt" /><path d="M 662.20 143.01 A 130 130 0 0 0 657.72 144.07" stroke="#c0b050" stroke-width="64" fill="none" stroke-linecap="butt" /><path d="M 666.41 142.16 A 130 130 0 0 0 662.20 143.01" stroke="#d84315" stroke-width="64" fill="none" stroke-linecap="butt" /><path d="M 670.25 141.51 A 130 130 0 0 0 666.41 142.16" stroke="#3949ab" stroke-width="64" fill="none" stroke-linecap="butt" /><path d="M 673.26 141.08 A 130 130 0 0 0 670.25 141.51" stroke="#fb8c00" stroke-width="64" fill="none" stroke-linecap="butt" /><path d="M 675.37 140.83 A 130 130 0 0 0 673.26 141.08" stroke="#8e24aa" stroke-width="64" fill="none" stroke-linecap="butt" /><path d="M 677.43 140.61 A 130 130 0 0 0 675.37 140.83" stroke="#00897b" stroke-width="64" fill="none" stroke-linecap="butt" /><path d="M 679.48 140.43 A 130 130 0 0 0 677.43 140.61" stroke="#6d4c41" stroke-width="64" fill="none" stroke-linecap="butt" /><path d="M 690.00 140.00 A 130 130 0 0 0 679.48 140.43" stroke="#ff7043" stroke-width="64" fill="none" stroke-linecap="butt" />
  <circle cx="690" cy="270" r="88" fill="#0d1117"/>

  <text x="690" y="264" text-anchor="middle" font-size="28" fill="#c9d1d9" font-family="Arial, Helvetica, sans-serif">
    652.8h
  </text>
  <text x="690" y="294" text-anchor="middle" font-size="14" fill="#8b949e" font-family="Arial, Helvetica, sans-serif">
    This Year
  </text>
</svg>