<svg width="980" height="540" viewBox="0 0 980 540" xmlns="http://www.w3.org/2000/svg" role="img" aria-label="WakaTime yearly language stats">
  <rect width="100%" height="100%" fill="#0d1117"/>
  <rect x="10" y="10" width="960" height="520" fill="none" stroke="#30363d"/>

  <text x="490.0" y="42" text-anchor="middle" font-size="24" fill="#58a6ff" font-family="Arial, Helvetica, sans-serif">
    Languages in 2026 (Powered by wakatime.com)
  </text>

  <rect x="36" y="81" width="12" height="12" rx="2" fill="#316dca" /><text x="56" y="92" font-size="16" fill="#c9d1d9" font-family="Arial, Helvetica, sans-serif">Python (70.63%)</text><rect x="36" y="109" width="12" height="12" rx="2" fill="#00c853" /><text x="56" y="120" font-size="16" fill="#c9d1d9" font-family="Arial, Helvetica, sans-serif">Other (7.97%)</text><rect x="36" y="137" width="12" height="12" rx="2" fill="#1e88e5" /><text x="56" y="148" font-size="16" fill="#c9d1d9" font-family="Arial, Helvetica, sans-serif">YAML (4.65%)</text><rect x="36" y="165" width="12" height="12" rx="2" fill="#455a64" /><text x="56" y="176" font-size="16" fill="#c9d1d9" font-family="Arial, Helvetica, sans-serif">Markdown (2.82%)</text><rect x="36" y="193" width="12" height="12" rx="2" fill="#c51162" /><text x="56" y="204" font-size="16" fill="#c9d1d9" font-family="Arial, Helvetica, sans-serif">JSON (2.09%)</text><rect x="36" y="221" width="12" height="12" rx="2" fill="#c0b050" /><text x="56" y="232" font-size="16" fill="#c9d1d9" font-family="Arial, Helvetica, sans-serif">Vue (2.06%)</text><rect x="36" y="249" width="12" height="12" rx="2" fill="#d84315" /><text x="56" y="260" font-size="16" fill="#c9d1d9" font-family="Arial, Helvetica, sans-serif">Text (1.82%)</text><rect x="36" y="277" width="12" height="12" rx="2" fill="#3949ab" /><text x="56" y="288" font-size="16" fill="#c9d1d9" font-family="Arial, Helvetica, sans-serif">GitIgnore file (1.39%)</text><rect x="36" y="305" width="12" height="12" rx="2" fill="#fb8c00" /><text x="56" y="316" font-size="16" fill="#c9d1d9" font-family="Arial, Helvetica, sans-serif">TOML (1.01%)</text><rect x="36" y="333" width="12" height="12" rx="2" fill="#8e24aa" /><text x="56" y="344" font-size="16" fill="#c9d1d9" font-family="Arial, Helvetica, sans-serif">Bash (1.00%)</text><rect x="36" y="361" width="12" height="12" rx="2" fill="#00897b" /><text x="56" y="372" font-size="16" fill="#c9d1d9" font-family="Arial, Helvetica, sans-serif">JavaScript (0.93%)</text><rect x="36" y="389" width="12" height="12" rx="2" fill="#6d4c41" /><text x="56" y="400" font-size="16" fill="#c9d1d9" font-family="Arial, Helvetica, sans-serif">SQL (0.80%)</text><rect x="36" y="417" width="12" height="12" rx="2" fill="#ff7043" /><text x="56" y="428" font-size="16" fill="#c9d1d9" font-family="Arial, Helvetica, sans-serif">Other (2.84%)</text>

  <circle cx="690" cy="270" r="130" stroke="#161b22" stroke-width="64" fill="none"/>
  <path d="M 564.88 305.28 A 130 130 0 1 0 690.00 140.00" stroke="#316dca" stroke-width="64" fill="none" stroke-linecap="butt" /><path d="M 563.31 240.86 A 130 130 0 0 0 564.88 305.28" stroke="#00c853" stroke-width="64" fill="none" stroke-linecap="butt" /><path d="M 577.08 205.59 A 130 130 0 0 0 563.31 240.86" stroke="#1e88e5" stroke-width="64" fill="none" stroke-linecap="butt" /><path d="M 590.19 186.70 A 130 130 0 0 0 577.08 205.59" stroke="#455a64" stroke-width="64" fill="none" stroke-linecap="butt" /><path d="M 601.95 174.36 A 130 130 0 0 0 590.19 186.70" stroke="#c51162" stroke-width="64" fill="none" stroke-linecap="butt" /><path d="M 615.02 163.80 A 130 130 0 0 0 601.95 174.36" stroke="#c0b050" stroke-width="64" fill="none" stroke-linecap="butt" /><path d="M 627.61 155.95 A 130 130 0 0 0 615.02 163.80" stroke="#d84315" stroke-width="64" fill="none" stroke-linecap="butt" /><path d="M 637.78 150.95 A 130 130 0 0 0 627.61 155.95" stroke="#3949ab" stroke-width="64" fill="none" stroke-linecap="butt" /><path d="M 645.42 147.88 A 130 130 0 0 0 637.78 150.95" stroke="#fb8c00" stroke-width="64" fill="none" stroke-linecap="butt" /><path d="M 653.13 145.34 A 130 130 0 0 0 645.42 147.88" stroke="#8e24aa" stroke-width="64" fill="none" stroke-linecap="butt" /><path d="M 660.49 143.39 A 130 130 0 0 0 653.13 145.34" stroke="#00897b" stroke-width="64" fill="none" stroke-linecap="butt" /><path d="M 666.91 142.07 A 130 130 0 0 0 660.49 143.39" stroke="#6d4c41" stroke-width="64" fill="none" stroke-linecap="butt" /><path d="M 690.00 140.00 A 130 130 0 0 0 666.91 142.07" stroke="#ff7043" stroke-width="64" fill="none" stroke-linecap="butt" />
  <circle cx="690" cy="270" r="88" fill="#0d1117"/>

  <text x="690" y="264" text-anchor="middle" font-size="28" fill="#c9d1d9" font-family="Arial, Helvetica, sans-serif">
    102.4h
  </text>
  <text x="690" y="294" text-anchor="middle" font-size="14" fill="#8b949e" font-family="Arial, Helvetica, sans-serif">
    This Year
  </text>
</svg>