<svg width="980" height="540" viewBox="0 0 980 540" xmlns="http://www.w3.org/2000/svg" role="img" aria-label="WakaTime yearly language stats">
  <rect width="100%" height="100%" fill="#0d1117"/>
  <rect x="10" y="10" width="960" height="520" fill="none" stroke="#30363d"/>

  <text x="490.0" y="42" text-anchor="middle" font-size="24" fill="#58a6ff" font-family="Arial, Helvetica, sans-serif">
    Languages in 2026 (Powered by wakatime.com)
  </text>

  <rect x="36" y="81" width="12" height="12" rx="2" fill="#316dca" /><text x="56" y="92" font-size="16" fill="#c9d1d9" font-family="Arial, Helvetica, sans-serif">Other (57.72%)</text><rect x="36" y="109" width="12" height="12" rx="2" fill="#00c853" /><text x="56" y="120" font-size="16" fill="#c9d1d9" font-family="Arial, Helvetica, sans-serif">Python (30.98%)</text><rect x="36" y="137" width="12" height="12" rx="2" fill="#1e88e5" /><text x="56" y="148" font-size="16" fill="#c9d1d9" font-family="Arial, Helvetica, sans-serif">Markdown (3.87%)</text><rect x="36" y="165" width="12" height="12" rx="2" fill="#455a64" /><text x="56" y="176" font-size="16" fill="#c9d1d9" font-family="Arial, Helvetica, sans-serif">YAML (1.76%)</text><rect x="36" y="193" width="12" height="12" rx="2" fill="#c51162" /><text x="56" y="204" font-size="16" fill="#c9d1d9" font-family="Arial, Helvetica, sans-serif">Vue (0.95%)</text><rect x="36" y="221" width="12" height="12" rx="2" fill="#c0b050" /><text x="56" y="232" font-size="16" fill="#c9d1d9" font-family="Arial, Helvetica, sans-serif">Text (0.68%)</text><rect x="36" y="249" width="12" height="12" rx="2" fill="#d84315" /><text x="56" y="260" font-size="16" fill="#c9d1d9" font-family="Arial, Helvetica, sans-serif">Bash (0.64%)</text><rect x="36" y="277" width="12" height="12" rx="2" fill="#3949ab" /><text x="56" y="288" font-size="16" fill="#c9d1d9" font-family="Arial, Helvetica, sans-serif">JSON (0.61%)</text><rect x="36" y="305" width="12" height="12" rx="2" fill="#fb8c00" /><text x="56" y="316" font-size="16" fill="#c9d1d9" font-family="Arial, Helvetica, sans-serif">TOML (0.52%)</text><rect x="36" y="333" width="12" height="12" rx="2" fill="#8e24aa" /><text x="56" y="344" font-size="16" fill="#c9d1d9" font-family="Arial, Helvetica, sans-serif">TypeScript (0.39%)</text><rect x="36" y="361" width="12" height="12" rx="2" fill="#00897b" /><text x="56" y="372" font-size="16" fill="#c9d1d9" font-family="Arial, Helvetica, sans-serif">HTML (0.37%)</text><rect x="36" y="389" width="12" height="12" rx="2" fill="#6d4c41" /><text x="56" y="400" font-size="16" fill="#c9d1d9" font-family="Arial, Helvetica, sans-serif">GitIgnore file (0.35%)</text><rect x="36" y="417" width="12" height="12" rx="2" fill="#ff7043" /><text x="56" y="428" font-size="16" fill="#c9d1d9" font-family="Arial, Helvetica, sans-serif">Other (1.15%)</text>

  <circle cx="690" cy="270" r="130" stroke="#161b22" stroke-width="64" fill="none"/>
  <path d="M 629.36 384.99 A 130 130 0 1 0 690.00 140.00" stroke="#316dca" stroke-width="64" fill="none" stroke-linecap="butt" /><path d="M 605.28 171.40 A 130 130 0 0 0 629.36 384.99" stroke="#00c853" stroke-width="64" fill="none" stroke-linecap="butt" /><path d="M 631.55 153.88 A 130 130 0 0 0 605.28 171.40" stroke="#1e88e5" stroke-width="64" fill="none" stroke-linecap="butt" /><path d="M 644.69 148.15 A 130 130 0 0 0 631.55 153.88" stroke="#455a64" stroke-width="64" fill="none" stroke-linecap="butt" /><path d="M 652.07 145.66 A 130 130 0 0 0 644.69 148.15" stroke="#c51162" stroke-width="64" fill="none" stroke-linecap="butt" /><path d="M 657.39 144.16 A 130 130 0 0 0 652.07 145.66" stroke="#c0b050" stroke-width="64" fill="none" stroke-linecap="butt" /><path d="M 662.50 142.94 A 130 130 0 0 0 657.39 144.16" stroke="#d84315" stroke-width="64" fill="none" stroke-linecap="butt" /><path d="M 667.43 141.97 A 130 130 0 0 0 662.50 142.94" stroke="#3949ab" stroke-width="64" fill="none" stroke-linecap="butt" /><path d="M 671.60 141.31 A 130 130 0 0 0 667.43 141.97" stroke="#fb8c00" stroke-width="64" fill="none" stroke-linecap="butt" /><path d="M 674.73 140.90 A 130 130 0 0 0 671.60 141.31" stroke="#8e24aa" stroke-width="64" fill="none" stroke-linecap="butt" /><path d="M 677.75 140.58 A 130 130 0 0 0 674.73 140.90" stroke="#00897b" stroke-width="64" fill="none" stroke-linecap="butt" /><path d="M 680.60 140.34 A 130 130 0 0 0 677.75 140.58" stroke="#6d4c41" stroke-width="64" fill="none" stroke-linecap="butt" /><path d="M 690.00 140.00 A 130 130 0 0 0 680.60 140.34" stroke="#ff7043" stroke-width="64" fill="none" stroke-linecap="butt" />
  <circle cx="690" cy="270" r="88" fill="#0d1117"/>

  <text x="690" y="264" text-anchor="middle" font-size="28" fill="#c9d1d9" font-family="Arial, Helvetica, sans-serif">
    437.3h
  </text>
  <text x="690" y="294" text-anchor="middle" font-size="14" fill="#8b949e" font-family="Arial, Helvetica, sans-serif">
    This Year
  </text>
</svg>