<svg width="980" height="540" viewBox="0 0 980 540" xmlns="http://www.w3.org/2000/svg" role="img" aria-label="WakaTime yearly language stats">
  <rect width="100%" height="100%" fill="#0d1117"/>
  <rect x="10" y="10" width="960" height="520" fill="none" stroke="#30363d"/>

  <text x="490.0" y="42" text-anchor="middle" font-size="24" fill="#58a6ff" font-family="Arial, Helvetica, sans-serif">
    Languages in 2026 (Powered by wakatime.com)
  </text>

  <rect x="36" y="81" width="12" height="12" rx="2" fill="#316dca" /><text x="56" y="92" font-size="16" fill="#c9d1d9" font-family="Arial, Helvetica, sans-serif">Python (58.02%)</text><rect x="36" y="109" width="12" height="12" rx="2" fill="#00c853" /><text x="56" y="120" font-size="16" fill="#c9d1d9" font-family="Arial, Helvetica, sans-serif">Other (25.40%)</text><rect x="36" y="137" width="12" height="12" rx="2" fill="#1e88e5" /><text x="56" y="148" font-size="16" fill="#c9d1d9" font-family="Arial, Helvetica, sans-serif">YAML (3.42%)</text><rect x="36" y="165" width="12" height="12" rx="2" fill="#455a64" /><text x="56" y="176" font-size="16" fill="#c9d1d9" font-family="Arial, Helvetica, sans-serif">Vue (2.07%)</text><rect x="36" y="193" width="12" height="12" rx="2" fill="#c51162" /><text x="56" y="204" font-size="16" fill="#c9d1d9" font-family="Arial, Helvetica, sans-serif">Markdown (1.94%)</text><rect x="36" y="221" width="12" height="12" rx="2" fill="#c0b050" /><text x="56" y="232" font-size="16" fill="#c9d1d9" font-family="Arial, Helvetica, sans-serif">Text (1.42%)</text><rect x="36" y="249" width="12" height="12" rx="2" fill="#d84315" /><text x="56" y="260" font-size="16" fill="#c9d1d9" font-family="Arial, Helvetica, sans-serif">JSON (1.32%)</text><rect x="36" y="277" width="12" height="12" rx="2" fill="#3949ab" /><text x="56" y="288" font-size="16" fill="#c9d1d9" font-family="Arial, Helvetica, sans-serif">TypeScript (0.90%)</text><rect x="36" y="305" width="12" height="12" rx="2" fill="#fb8c00" /><text x="56" y="316" font-size="16" fill="#c9d1d9" font-family="Arial, Helvetica, sans-serif">HTML (0.87%)</text><rect x="36" y="333" width="12" height="12" rx="2" fill="#8e24aa" /><text x="56" y="344" font-size="16" fill="#c9d1d9" font-family="Arial, Helvetica, sans-serif">TOML (0.83%)</text><rect x="36" y="361" width="12" height="12" rx="2" fill="#00897b" /><text x="56" y="372" font-size="16" fill="#c9d1d9" font-family="Arial, Helvetica, sans-serif">GitIgnore file (0.81%)</text><rect x="36" y="389" width="12" height="12" rx="2" fill="#6d4c41" /><text x="56" y="400" font-size="16" fill="#c9d1d9" font-family="Arial, Helvetica, sans-serif">JavaScript (0.71%)</text><rect x="36" y="417" width="12" height="12" rx="2" fill="#ff7043" /><text x="56" y="428" font-size="16" fill="#c9d1d9" font-family="Arial, Helvetica, sans-serif">Other (2.30%)</text>

  <circle cx="690" cy="270" r="130" stroke="#161b22" stroke-width="64" fill="none"/>
  <path d="M 627.26 383.86 A 130 130 0 1 0 690.00 140.00" stroke="#316dca" stroke-width="64" fill="none" stroke-linecap="butt" /><path d="M 577.75 204.43 A 130 130 0 0 0 627.26 383.86" stroke="#00c853" stroke-width="64" fill="none" stroke-linecap="butt" /><path d="M 594.29 182.02 A 130 130 0 0 0 577.75 204.43" stroke="#1e88e5" stroke-width="64" fill="none" stroke-linecap="butt" /><path d="M 606.48 170.37 A 130 130 0 0 0 594.29 182.02" stroke="#455a64" stroke-width="64" fill="none" stroke-linecap="butt" /><path d="M 619.21 160.96 A 130 130 0 0 0 606.48 170.37" stroke="#c51162" stroke-width="64" fill="none" stroke-linecap="butt" /><path d="M 629.21 155.09 A 130 130 0 0 0 619.21 160.96" stroke="#c0b050" stroke-width="64" fill="none" stroke-linecap="butt" /><path d="M 638.95 150.44 A 130 130 0 0 0 629.21 155.09" stroke="#d84315" stroke-width="64" fill="none" stroke-linecap="butt" /><path d="M 645.81 147.74 A 130 130 0 0 0 638.95 150.44" stroke="#3949ab" stroke-width="64" fill="none" stroke-linecap="butt" /><path d="M 652.54 145.51 A 130 130 0 0 0 645.81 147.74" stroke="#fb8c00" stroke-width="64" fill="none" stroke-linecap="butt" /><path d="M 659.07 143.73 A 130 130 0 0 0 652.54 145.51" stroke="#8e24aa" stroke-width="64" fill="none" stroke-linecap="butt" /><path d="M 665.55 142.32 A 130 130 0 0 0 659.07 143.73" stroke="#00897b" stroke-width="64" fill="none" stroke-linecap="butt" /><path d="M 671.28 141.35 A 130 130 0 0 0 665.55 142.32" stroke="#6d4c41" stroke-width="64" fill="none" stroke-linecap="butt" /><path d="M 690.00 140.00 A 130 130 0 0 0 671.28 141.35" stroke="#ff7043" stroke-width="64" fill="none" stroke-linecap="butt" />
  <circle cx="690" cy="270" r="88" fill="#0d1117"/>

  <text x="690" y="264" text-anchor="middle" font-size="28" fill="#c9d1d9" font-family="Arial, Helvetica, sans-serif">
    187.0h
  </text>
  <text x="690" y="294" text-anchor="middle" font-size="14" fill="#8b949e" font-family="Arial, Helvetica, sans-serif">
    This Year
  </text>
</svg>