<svg width="980" height="540" viewBox="0 0 980 540" xmlns="http://www.w3.org/2000/svg" role="img" aria-label="WakaTime yearly language stats">
  <rect width="100%" height="100%" fill="#0d1117"/>
  <rect x="10" y="10" width="960" height="520" fill="none" stroke="#30363d"/>

  <text x="490.0" y="42" text-anchor="middle" font-size="24" fill="#58a6ff" font-family="Arial, Helvetica, sans-serif">
    Languages in 2026 (Powered by wakatime.com)
  </text>

  <rect x="36" y="81" width="12" height="12" rx="2" fill="#316dca" /><text x="56" y="92" font-size="16" fill="#c9d1d9" font-family="Arial, Helvetica, sans-serif">Python (66.06%)</text><rect x="36" y="109" width="12" height="12" rx="2" fill="#00c853" /><text x="56" y="120" font-size="16" fill="#c9d1d9" font-family="Arial, Helvetica, sans-serif">Other (9.53%)</text><rect x="36" y="137" width="12" height="12" rx="2" fill="#1e88e5" /><text x="56" y="148" font-size="16" fill="#c9d1d9" font-family="Arial, Helvetica, sans-serif">YAML (5.38%)</text><rect x="36" y="165" width="12" height="12" rx="2" fill="#455a64" /><text x="56" y="176" font-size="16" fill="#c9d1d9" font-family="Arial, Helvetica, sans-serif">Markdown (3.78%)</text><rect x="36" y="193" width="12" height="12" rx="2" fill="#c51162" /><text x="56" y="204" font-size="16" fill="#c9d1d9" font-family="Arial, Helvetica, sans-serif">JSON (2.97%)</text><rect x="36" y="221" width="12" height="12" rx="2" fill="#c0b050" /><text x="56" y="232" font-size="16" fill="#c9d1d9" font-family="Arial, Helvetica, sans-serif">Text (2.80%)</text><rect x="36" y="249" width="12" height="12" rx="2" fill="#d84315" /><text x="56" y="260" font-size="16" fill="#c9d1d9" font-family="Arial, Helvetica, sans-serif">GitIgnore file (1.65%)</text><rect x="36" y="277" width="12" height="12" rx="2" fill="#3949ab" /><text x="56" y="288" font-size="16" fill="#c9d1d9" font-family="Arial, Helvetica, sans-serif">Vue (1.62%)</text><rect x="36" y="305" width="12" height="12" rx="2" fill="#fb8c00" /><text x="56" y="316" font-size="16" fill="#c9d1d9" font-family="Arial, Helvetica, sans-serif">TOML (1.35%)</text><rect x="36" y="333" width="12" height="12" rx="2" fill="#8e24aa" /><text x="56" y="344" font-size="16" fill="#c9d1d9" font-family="Arial, Helvetica, sans-serif">SQL (1.22%)</text><rect x="36" y="361" width="12" height="12" rx="2" fill="#00897b" /><text x="56" y="372" font-size="16" fill="#c9d1d9" font-family="Arial, Helvetica, sans-serif">Bash (1.11%)</text><rect x="36" y="389" width="12" height="12" rx="2" fill="#6d4c41" /><text x="56" y="400" font-size="16" fill="#c9d1d9" font-family="Arial, Helvetica, sans-serif">textmate (0.70%)</text><rect x="36" y="417" width="12" height="12" rx="2" fill="#ff7043" /><text x="56" y="428" font-size="16" fill="#c9d1d9" font-family="Arial, Helvetica, sans-serif">Other (1.82%)</text>

  <circle cx="690" cy="270" r="130" stroke="#161b22" stroke-width="64" fill="none"/>
  <path d="M 579.97 339.23 A 130 130 0 1 0 690.00 140.00" stroke="#316dca" stroke-width="64" fill="none" stroke-linecap="butt" /><path d="M 560.09 265.15 A 130 130 0 0 0 579.97 339.23" stroke="#00c853" stroke-width="64" fill="none" stroke-linecap="butt" /><path d="M 569.06 222.32 A 130 130 0 0 0 560.09 265.15" stroke="#1e88e5" stroke-width="64" fill="none" stroke-linecap="butt" /><path d="M 583.68 195.19 A 130 130 0 0 0 569.06 222.32" stroke="#455a64" stroke-width="64" fill="none" stroke-linecap="butt" /><path d="M 599.40 176.77 A 130 130 0 0 0 583.68 195.19" stroke="#c51162" stroke-width="64" fill="none" stroke-linecap="butt" /><path d="M 617.14 162.34 A 130 130 0 0 0 599.40 176.77" stroke="#c0b050" stroke-width="64" fill="none" stroke-linecap="butt" /><path d="M 628.66 155.38 A 130 130 0 0 0 617.14 162.34" stroke="#d84315" stroke-width="64" fill="none" stroke-linecap="butt" /><path d="M 640.60 149.75 A 130 130 0 0 0 628.66 155.38" stroke="#3949ab" stroke-width="64" fill="none" stroke-linecap="butt" /><path d="M 651.00 145.99 A 130 130 0 0 0 640.60 149.75" stroke="#fb8c00" stroke-width="64" fill="none" stroke-linecap="butt" /><path d="M 660.61 143.37 A 130 130 0 0 0 651.00 145.99" stroke="#8e24aa" stroke-width="64" fill="none" stroke-linecap="butt" /><path d="M 669.51 141.63 A 130 130 0 0 0 660.61 143.37" stroke="#00897b" stroke-width="64" fill="none" stroke-linecap="butt" /><path d="M 675.17 140.85 A 130 130 0 0 0 669.51 141.63" stroke="#6d4c41" stroke-width="64" fill="none" stroke-linecap="butt" /><path d="M 690.00 140.00 A 130 130 0 0 0 675.17 140.85" stroke="#ff7043" stroke-width="64" fill="none" stroke-linecap="butt" />
  <circle cx="690" cy="270" r="88" fill="#0d1117"/>

  <text x="690" y="264" text-anchor="middle" font-size="28" fill="#c9d1d9" font-family="Arial, Helvetica, sans-serif">
    62.4h
  </text>
  <text x="690" y="294" text-anchor="middle" font-size="14" fill="#8b949e" font-family="Arial, Helvetica, sans-serif">
    This Year
  </text>
</svg>